<?xml version="1.0" encoding="utf-8"?>
<!-- Generator: Adobe Illustrator 27.0.0, SVG Export Plug-In . SVG Version: 6.00 Build 0)  -->
<svg version="1.1" xmlns="http://www.w3.org/2000/svg" xmlns:xlink="http://www.w3.org/1999/xlink" x="0px" y="0px"
	 viewBox="0 0 384.5 384.5" style="enable-background:new 0 0 384.5 384.5;" xml:space="preserve">
<style type="text/css">
	.st0{fill:#8DD0E0;stroke:#FFFFFF;stroke-width:2.672;}
	.st1{fill:none;stroke:#FFFFFF;stroke-width:8;}
	.st2{fill:none;stroke:#FFFFFF;stroke-width:2.672;}
	.st3{fill:none;stroke:#000000;stroke-width:4;}
	.st4{fill:#FFFFFF;}
</style>
<g id="HG">
</g>
<g id="Siegel">
	<g>
		<path class="st0" d="M192.25,376.5c101.76,0,184.25-82.49,184.25-184.25S294.01,8,192.25,8S8,90.49,8,192.25
			S90.49,376.5,192.25,376.5"/>
		<circle class="st1" cx="192.25" cy="192.25" r="188.25"/>
		<circle class="st2" cx="192.25" cy="192.25" r="177.59"/>
		<line class="st3" x1="112.29" y1="297.29" x2="271.03" y2="297.29"/>
		<g>
			<path d="M206.46,177.86c0.11,0.38-0.12,0.69-0.52,0.69h-26.83c-0.4,0-0.62-0.31-0.49-0.68l2.07-5.99
				c0.13-0.38,0.56-0.68,0.96-0.68h22.1c0.4,0,0.82,0.31,0.93,0.69L206.46,177.86z"/>
			<path d="M198.4,168.55c0.03,0.4-0.28,0.72-0.68,0.72h-10.04c-0.4,0-0.69-0.32-0.66-0.72l3.01-44.96c0.04-0.4,0.39-0.72,0.79-0.72
				h2.75c0.4,0,0.74,0.32,0.77,0.72L198.4,168.55z"/>
			<rect x="166.37" y="118.16" width="50.57" height="2.55"/>
			<path d="M198.86,109.22c0,3.65-2.96,6.61-6.61,6.61c-3.65,0-6.61-2.96-6.61-6.61c0-3.65,2.96-6.61,6.61-6.61
				C195.9,102.62,198.86,105.58,198.86,109.22"/>
			<path d="M170.62,119.43c0,1.7-1.38,3.07-3.07,3.07c-1.7,0-3.07-1.38-3.07-3.07c0-1.7,1.38-3.07,3.07-3.07
				C169.24,116.36,170.62,117.73,170.62,119.43"/>
			<path d="M180.15,156.66c0,0.94-6.26,5.72-12.6,5.72c-6.34,0-12.6-4.79-12.6-5.72c0-0.94,0.76-1.69,1.7-1.69h21.82
				C179.39,154.96,180.15,155.72,180.15,156.66"/>
			<path d="M176.98,153.17c-0.29,0-0.55-0.19-0.62-0.48l-7.09-27.83c-0.09-0.34,0.12-0.69,0.46-0.77c0.34-0.1,0.69,0.12,0.77,0.46
				l7.09,27.83c0.09,0.34-0.12,0.69-0.46,0.78C177.09,153.16,177.03,153.17,176.98,153.17"/>
			<path d="M158.11,153.17c-0.05,0-0.1-0.01-0.15-0.02c-0.34-0.08-0.55-0.43-0.47-0.77l6.85-27.83c0.08-0.34,0.43-0.55,0.77-0.47
				c0.34,0.08,0.55,0.43,0.47,0.77l-6.85,27.83C158.66,152.97,158.4,153.17,158.11,153.17"/>
			<path d="M220.98,119.43c0,1.7-1.38,3.07-3.07,3.07c-1.7,0-3.07-1.38-3.07-3.07c0-1.7,1.38-3.07,3.07-3.07
				C219.6,116.36,220.98,117.73,220.98,119.43"/>
			<path d="M230.51,156.66c0,0.94-6.27,5.72-12.6,5.72s-12.6-4.79-12.6-5.72c0-0.94,0.76-1.69,1.7-1.69h21.82
				C229.75,154.96,230.51,155.72,230.51,156.66"/>
			<path d="M227.34,153.17c-0.29,0-0.55-0.19-0.62-0.48l-7.09-27.83c-0.09-0.34,0.12-0.69,0.46-0.77c0.34-0.1,0.69,0.12,0.77,0.46
				l7.09,27.83c0.09,0.34-0.12,0.69-0.46,0.78C227.45,153.16,227.39,153.17,227.34,153.17"/>
			<path d="M208.47,153.17c-0.05,0-0.1-0.01-0.15-0.02c-0.34-0.08-0.55-0.43-0.47-0.77l6.85-27.83c0.09-0.34,0.43-0.55,0.77-0.47
				c0.34,0.08,0.55,0.43,0.47,0.77l-6.85,27.83C209.02,152.97,208.76,153.17,208.47,153.17"/>
		</g>
		<line class="st3" x1="112.88" y1="190.28" x2="271.62" y2="190.28"/>
		<g>
			<g>
				<path d="M148.31,337.21c-0.23-1.23-0.8-1.92-1.84-1.92c-0.83,0-1.4,0.43-1.4,1.23c0,2.41,6.02,3.38,6.02,7.97
					c0,2.75-1.89,4.16-4.5,4.16c-2.81,0-4.42-1.61-4.9-4.3l2.81-0.77c0.2,1.29,0.66,2.44,2.12,2.44c0.83,0,1.43-0.49,1.43-1.35
					c0-2.67-6.02-3.67-6.02-7.88c0-2.44,1.89-4.13,4.3-4.13c2.52,0,4.21,1.69,4.7,4.1L148.31,337.21z"/>
				<path d="M152.35,335.58v-2.64h1.78v-4.16h3.21v4.16h2.15v2.64h-2.15v8.89c0,0.8,0.34,1.26,1.09,1.26h1.06v2.75
					c-0.43,0.11-0.8,0.17-1.61,0.17c-2.41,0-3.76-1.12-3.76-3.47v-9.61H152.35z"/>
				<path d="M161.24,337.47c0.17-3.13,2.15-4.82,5.16-4.82c2.98,0,4.68,1.38,4.68,4.19v9.89c0,0.49,0.11,1.12,0.2,1.64h-3.07
					c-0.03-0.43-0.14-0.83-0.17-1.2c-1.21,0.98-2.21,1.49-3.76,1.49c-2.18,0-3.27-1.49-3.27-3.47c0-3.38,2.24-5.25,6.85-7v-0.92
					c0-1.29-0.52-1.98-1.58-1.98c-1.46,0-1.78,0.86-1.83,2.18H161.24z M167.87,340.54c-2.92,1.66-3.64,2.72-3.64,4.07
					c0,1,0.51,1.4,1.49,1.4c0.89,0,1.61-0.66,2.15-1.43V340.54z"/>
			</g>
			<g>
				<path d="M173.05,335.58v-2.64h1.78v-4.16h3.21v4.16h2.15v2.64h-2.15v8.89c0,0.8,0.34,1.26,1.09,1.26h1.06v2.75
					c-0.43,0.11-0.8,0.17-1.61,0.17c-2.41,0-3.76-1.12-3.76-3.47v-9.61H173.05z"/>
				<path d="M182.32,328.74h3.21v2.92h-3.21V328.74z M182.32,332.94h3.21v15.43h-3.21V332.94z"/>
			</g>
			<g>
				<path d="M194.5,337.21c-0.23-1.23-0.8-1.92-1.84-1.92c-0.83,0-1.4,0.43-1.4,1.23c0,2.41,6.02,3.38,6.02,7.97
					c0,2.75-1.89,4.16-4.5,4.16c-2.81,0-4.42-1.61-4.9-4.3l2.81-0.77c0.2,1.29,0.66,2.44,2.12,2.44c0.83,0,1.43-0.49,1.43-1.35
					c0-2.67-6.02-3.67-6.02-7.88c0-2.44,1.89-4.13,4.3-4.13c2.52,0,4.21,1.69,4.7,4.1L194.5,337.21z"/>
				<path d="M198.55,335.58v-2.64h1.78v-4.16h3.21v4.16h2.15v2.64h-2.15v8.89c0,0.8,0.34,1.26,1.09,1.26h1.06v2.75
					c-0.43,0.11-0.8,0.17-1.61,0.17c-2.41,0-3.76-1.12-3.76-3.47v-9.61H198.55z"/>
				<path d="M207.43,337.47c0.17-3.13,2.15-4.82,5.16-4.82c2.98,0,4.67,1.38,4.67,4.19v9.89c0,0.49,0.11,1.12,0.2,1.64h-3.07
					c-0.03-0.43-0.14-0.83-0.17-1.2c-1.2,0.98-2.21,1.49-3.76,1.49c-2.18,0-3.27-1.49-3.27-3.47c0-3.38,2.24-5.25,6.85-7v-0.92
					c0-1.29-0.52-1.98-1.58-1.98c-1.46,0-1.78,0.86-1.83,2.18H207.43z M214.06,340.54c-2.92,1.66-3.64,2.72-3.64,4.07
					c0,1,0.52,1.4,1.49,1.4c0.89,0,1.61-0.66,2.15-1.43V340.54z"/>
				<path d="M242.7,328.76h-18.5c-0.38,0-0.7,0.31-0.7,0.7v12.6c0.03,0,0.07-0.01,0.1-0.01c0,0,2.99-0.06,4.28-0.73
					c1.59-0.82,2.77-2.53,2.77-2.53c0.3-0.43,0.63-0.91,0.74-1.06c0.11-0.15,0.21-0.3,0.24-0.34c0.03-0.03,0.15-0.21,0.22-0.31
					c0.07-0.1,0.38-0.54,0.68-0.98c0,0,1.8-2.61,4.36-3.93c2.77-1.44,6.44-1.28,6.44-1.28c0.02,0,0.04,0,0.06,0.01v-1.44
					C243.4,329.07,243.09,328.76,242.7,328.76 M238.93,336.09c-1.59,0.82-2.77,2.53-2.77,2.53c-0.3,0.43-0.63,0.91-0.74,1.06
					c-0.1,0.15-0.21,0.3-0.24,0.34c-0.03,0.03-0.15,0.21-0.22,0.31c-0.07,0.11-0.38,0.55-0.68,0.98c0,0-1.8,2.61-4.36,3.93
					c-2.66,1.38-6.13,1.29-6.42,1.28v1.43c0,0.39,0.31,0.7,0.7,0.7h18.5c0.39,0,0.7-0.31,0.7-0.7v-12.62
					c-0.06,0.01-0.12,0.02-0.18,0.02C243.22,335.36,240.22,335.42,238.93,336.09"/>
			</g>
		</g>
		<g>
			<path class="st4" d="M143.16,322.82v-6.66h0.79v6.66H143.16z"/>
			<path class="st4" d="M145.59,322.82v-6.66h0.84l3.5,5.27h0.02v-5.27h0.75v6.66h-0.71l-3.63-5.41h-0.02v5.41H145.59z"/>
			<path class="st4" d="M153.93,319.46c0-2.08,1.16-3.43,2.83-3.43c1.41,0,2.16,0.82,2.47,2.04l-0.76,0.21
				c-0.29-1.01-0.75-1.52-1.72-1.52c-1.24,0-2.02,1.04-2.02,2.69c0,1.76,0.79,2.77,2.03,2.77c0.95,0,1.53-0.53,1.81-1.61l0.75,0.17
				c-0.32,1.31-1.17,2.16-2.57,2.16C155.06,322.95,153.93,321.64,153.93,319.46z"/>
			<path class="st4" d="M160.18,319.49c0-2.14,1.23-3.46,2.88-3.46s2.86,1.31,2.86,3.46s-1.22,3.46-2.86,3.46
				S160.18,321.63,160.18,319.49z M165.13,319.49c0-1.74-0.86-2.74-2.07-2.74c-1.22,0-2.08,1-2.08,2.74s0.86,2.75,2.08,2.75
				C164.27,322.24,165.13,321.23,165.13,319.49z"/>
			<path class="st4" d="M166.83,319.49c0-2.14,1.23-3.46,2.88-3.46s2.86,1.31,2.86,3.46s-1.22,3.46-2.86,3.46
				S166.83,321.63,166.83,319.49z M171.79,319.49c0-1.74-0.86-2.74-2.07-2.74c-1.22,0-2.08,1-2.08,2.74s0.86,2.75,2.08,2.75
				C170.92,322.24,171.79,321.23,171.79,319.49z"/>
			<path class="st4" d="M173.81,322.82v-6.66h2.26c1.44,0,2.4,0.57,2.4,1.89c0,1.42-1.06,1.95-2.46,1.95h-1.41v2.82H173.81z
				 M174.6,319.3h1.46c1.06,0,1.63-0.32,1.63-1.22c0-0.86-0.56-1.2-1.64-1.2h-1.45V319.3z"/>
			<path class="st4" d="M179.56,322.82v-6.66h4.09v0.73h-3.29v2.08h2.45v0.71h-2.45v2.42h3.48v0.72H179.56z"/>
			<path class="st4" d="M184.95,322.82v-6.66h2.29c1.51,0,2.37,0.64,2.37,1.86c0,1.07-0.6,1.63-1.55,1.83l1.64,2.97h-0.86
				l-1.59-2.87h-1.5v2.87H184.95z M185.73,319.25h1.46c1.04,0,1.63-0.29,1.63-1.2c0-0.87-0.58-1.17-1.64-1.17h-1.45V319.25z"/>
			<path class="st4" d="M190.42,322.82l2.36-6.69h0.83l2.36,6.69h-0.82l-0.66-1.91h-2.65l-0.66,1.91H190.42z M192.09,320.22h2.16
				l-1.06-3.12h-0.02L192.09,320.22z"/>
			<path class="st4" d="M198.57,322.82v-5.93h-2.12v-0.73h5.03v0.73h-2.12v5.93H198.57z"/>
			<path class="st4" d="M202.59,322.82v-6.66h0.79v6.66H202.59z"/>
			<path class="st4" d="M204.7,319.49c0-2.14,1.23-3.46,2.88-3.46s2.86,1.31,2.86,3.46s-1.22,3.46-2.86,3.46
				S204.7,321.63,204.7,319.49z M209.65,319.49c0-1.74-0.86-2.74-2.07-2.74c-1.22,0-2.08,1-2.08,2.74s0.86,2.75,2.08,2.75
				C208.78,322.24,209.65,321.23,209.65,319.49z"/>
			<path class="st4" d="M211.67,322.82v-6.66h0.84l3.5,5.27h0.02v-5.27h0.75v6.66h-0.71l-3.63-5.41h-0.02v5.41H211.67z"/>
			<path class="st4" d="M221.62,322.82l-1.77-6.66h0.8l0.98,3.86c0.15,0.58,0.3,1.15,0.39,1.63h0.02c0.09-0.47,0.23-1.04,0.38-1.62
				l0.93-3.87h0.8l0.95,3.9c0.14,0.59,0.28,1.08,0.37,1.59h0.02c0.11-0.54,0.22-0.98,0.37-1.57l0.97-3.93h0.76l-1.76,6.66h-0.73
				l-1.34-5.57h-0.02l-1.38,5.57H221.62z"/>
			<path class="st4" d="M228.72,322.82v-6.66h0.79v6.66H228.72z"/>
			<path class="st4" d="M232.73,322.82v-5.93h-2.12v-0.73h5.03v0.73h-2.12v5.93H232.73z"/>
			<path class="st4" d="M236.66,322.82v-6.66h0.79v2.79h3.43v-2.79h0.79v6.66h-0.79v-3.14h-3.43v3.14H236.66z"/>
		</g>
		<g>
			<path d="M59.09,211.43h-7.44v-6.86h23.06v6.86h-7.44v25.7h-8.19V211.43z"/>
			<path d="M75.54,220.85c0-12.01,6.34-16.9,13.51-16.9c7.13,0,13.47,4.88,13.47,16.9s-6.34,16.9-13.47,16.9
				C81.88,237.74,75.54,232.86,75.54,220.85z M94.29,220.85c0-6.51-1.67-9.95-5.24-9.95c-3.56,0-5.28,3.43-5.28,9.95
				s1.72,10.17,5.28,10.17C92.62,231.01,94.29,227.36,94.29,220.85z"/>
			<path d="M106.04,204.56h10.21c6.07,0,12.01,2.24,12.01,11.13c0,9.24-6.42,11.27-12.06,11.27h-2.11v10.17h-8.05V204.56z
				 M116.42,220.58c3.08,0,4.05-1.58,4.05-4.71c0-3.04-0.97-4.53-4.09-4.53h-2.29v9.24H116.42z"/>
			<path d="M142.07,204.56h8.19v25.92h11.88v6.64h-20.07V204.56z"/>
			<path d="M170.63,237.13h-7.61l9.51-32.7h7.96l9.51,32.7h-8.23l-1.36-5.5h-8.36L170.63,237.13z M178.28,222.87
				c-0.79-3.21-1.45-5.33-1.94-8.32h-0.09c-0.48,3.04-1.19,5.06-2.02,8.32l-0.62,2.46h5.24L178.28,222.87z"/>
			<path d="M190.47,204.56h7.88l2.02,11.27c0.48,2.68,0.75,4.09,1.28,8.18h0.09c0.48-4,0.79-5.46,1.28-8.14l1.98-11.31h7.26
				l2.02,11.44c0.48,2.64,0.84,4.44,1.23,8.05h0.09c0.44-3.56,0.75-5.32,1.23-7.92l2.07-11.57h7.22l-7.26,32.7h-7.13l-3.39-19.05
				h-0.09l-3.39,19.05h-7.13L190.47,204.56z"/>
			<path d="M239.18,204.56h19.23v6.86h-11.05v6.65h7.83v6.42h-7.83v12.63h-8.19V204.56z"/>
			<path d="M261.49,204.56h8.18v32.56h-8.18V204.56z"/>
			<path d="M274.64,204.56h10.61c7.13,0,11.62,2.9,11.62,10.74c0,4.05-1.85,7.17-4.93,8.62l5.94,13.2h-8.45l-5.02-11.09h-1.8v11.09
				h-7.97V204.56z M285.03,219.88c2.73,0,4.05-1.19,4.05-4.4c0-3.12-1.32-4.14-4.05-4.14h-2.42v8.54H285.03z"/>
			<path d="M301.26,204.56h10.47l4.45,21.21h0.04l4.05-21.21h10.65v32.56h-7.74v-20.99h-0.09c-0.09,2.29-1.01,6.29-1.36,7.88
				l-2.99,13.11h-5.98l-2.9-13.07c-0.22-1.01-1.23-5.72-1.41-8.14h-0.09v21.21h-7.08V204.56z"/>
		</g>
		<g>
			<path d="M145.17,284.1v-0.64c0-4.28,1.92-8.28,9.72-13.28c4.44-2.84,6.24-4.64,6.24-7.8c0-3.24-2.04-5.32-5.56-5.32
				c-3.04,0-5.48,1.68-7.24,4.88l-2.72-1.68c2.16-3.92,5.52-6.32,10.12-6.32c5.48,0,8.84,3.36,8.84,8.2c0,3.88-1.76,6.52-7.44,10.12
				c-5.16,3.28-7.68,6.2-8,8.72h15.6v3.12H145.17z"/>
			<path d="M169.17,269.3c0-9.24,4.08-15.36,11.16-15.36c7.12,0,11.08,6.12,11.08,15.36c0,9.24-3.96,15.36-11.08,15.36
				C173.25,284.66,169.17,278.54,169.17,269.3z M187.93,269.3c0-8.04-2.96-12.24-7.6-12.24c-4.84,0-7.64,4.2-7.64,12.24
				c0,8.04,2.96,12.28,7.64,12.28C185.09,281.58,187.93,277.34,187.93,269.3z"/>
			<path d="M195.29,284.1v-0.64c0-4.28,1.92-8.28,9.72-13.28c4.44-2.84,6.24-4.64,6.24-7.8c0-3.24-2.04-5.32-5.56-5.32
				c-3.04,0-5.48,1.68-7.24,4.88l-2.72-1.68c2.16-3.92,5.52-6.32,10.12-6.32c5.48,0,8.84,3.36,8.84,8.2c0,3.88-1.76,6.52-7.44,10.12
				c-5.16,3.28-7.68,6.2-8,8.72h15.6v3.12H195.29z"/>
			<path d="M218.25,279.26l2.56-1.92c2.12,3.04,4.76,4.24,7.88,4.24c4.12,0,6.72-2.08,6.72-5.6c0-4.12-2.6-6.08-9.12-6.08h-1.2
				v-2.92h1.4c6.12,0,8.2-1.88,8.2-5.16c0-2.8-1.68-4.72-5.88-4.72c-2.84,0-5.24,1.32-6.96,3.36l-2.28-2.12
				c2.2-2.56,5.48-4.36,9.52-4.36c6.28,0,9.08,3.36,9.08,7.4c0,3.72-2.2,6.2-5.76,7c4.4,0.88,6.48,3.48,6.48,7.68
				c0,5-3.96,8.6-10.2,8.6C224.25,284.66,220.53,282.74,218.25,279.26z"/>
		</g>
		<g>
			<g>
				<path class="st4" d="M154.59,57.55c2.1-0.69,3.86-2.1,3.86-4.74c0-1.51-0.67-2.65-1.66-3.47c-0.93-0.77-2.16-1.26-3.4-1.51
					c-0.43-0.09-0.86-0.14-1.28-0.17v-0.06c2.58-0.39,5.66-1.71,5.66-4.77c0-1.47-0.54-2.51-1.39-3.22
					c-1.64-1.38-4.4-1.61-6.58-1.61h-8.8v0.75h2.83v18.54h-2.83v0.75h6.52C149.61,58.03,152.4,58.27,154.59,57.55 M147.39,38.74
					c2.42,0.06,4.44-0.28,5.56,0.82c0.6,0.58,0.94,1.58,0.94,3.27c0,3.42-1.55,4.47-3.83,4.47h-2.16h-0.51V38.74z M147.39,48.04
					h2.85c1.31,0.01,2.25,0.35,2.9,0.94c0.87,0.8,1.22,2.06,1.22,3.68c0,2.1-0.59,4.62-3.2,4.62h-3.27h-0.51V48.04z"/>
				<polygon class="st4" points="165.47,38.74 168.24,38.74 168.24,37.99 159.13,37.99 159.13,38.74 161.9,38.74 161.9,57.28 
					159.13,57.28 159.13,58.03 168.24,58.03 168.24,57.28 165.47,57.28 				"/>
				<polygon class="st4" points="224.57,38.74 227.43,38.74 227.43,37.99 220.87,37.99 220.87,38.74 223.61,38.74 223.64,51.08 
					223.65,51.45 214.39,37.99 207.26,37.99 207.26,38.74 209.99,38.74 209.99,57.28 207.39,57.28 207.39,58.03 213.75,58.03 
					213.75,57.28 210.95,57.28 210.95,39.34 211.46,40.11 223.67,58.42 224.57,58.42 				"/>
				<path class="st4" d="M243.51,51.58h-0.79c-0.74,3.78-1.63,5.7-5.93,5.7h-5.2l11.9-18.45v-0.84h-15.09l-0.01,5.4h0.85
					c0.52-2.88,1.91-4.02,3.72-4.44c0.89-0.21,1.97-0.21,3.02-0.21h3.32l-0.24,0.38l-11.72,18.1v0.81h16.17L243.51,51.58z"/>
				<path class="st4" d="M206.87,57.28h-2.69l-7.44-19.74h-0.86l-7.6,19.74h-2.4l-0.04-5.62l0-0.38h-0.93c-0.12,3.45-1.47,6-5.28,6
					h-3.72V38.74h3.12v-0.75h-9.52v0.75h2.83v18.54h-2.83v0.75l22.82,0v-0.75h-3.1l1.97-5.31h6.87l0.14,0.38l1.96,4.93h-3.16v0.75
					h9.86V57.28z M194.77,42.85l2.99,8.37h-6.2L194.77,42.85z"/>
			</g>
			<g>
				<path class="st4" d="M148.89,83.42c0-2.98,2.09-4.68,5.34-6.23c-0.8-1.19-2.41-3.73-2.41-5.52c0-2.71,2.33-4.59,6.11-4.59
					c2.53,0,3.76,1.55,3.76,3.79c0,1.76-1.34,3.34-3.46,4.65c1.52,2.27,3.19,4.41,4.86,6.56c1.25-1.7,2.5-4.29,2.5-5.49
					c0-0.63-1.01-0.95-3.07-1.37v-0.21h8.11v0.21c-1.7,0.18-2.83,0.75-3.46,1.46c-0.69,0.78-2.38,3.82-3.82,5.75
					c1.43,1.7,2.98,3.64,3.94,4.2c1.04,0.63,1.49,0.86,2.83,0.98v0.24h-7.57l-1.85-2.21c-1.43,1.43-3.4,2.68-5.52,2.68
					C151.81,88.33,148.89,86.84,148.89,83.42z M160.45,85.35c-2.27-2.86-4.98-6.44-5.93-7.75c-0.66,0.98-1.01,2.71-1.01,4.56
					c0,2.92,1.31,4.59,3.25,4.59C158.22,86.75,159.65,86.16,160.45,85.35z M160.31,70.84c0-1.94-0.75-3.43-2.27-3.43
					c-1.16,0-2.12,1.16-2.12,3.01c0,1.34,1.04,3.16,2.12,4.77C159.83,74.03,160.31,72.51,160.31,70.84z"/>
				<g>
					<rect x="217.03" y="68.05" class="st4" width="14.46" height="2.89"/>
					<rect x="219.92" y="76.73" class="st4" width="8.67" height="2.89"/>
					<rect x="217.03" y="85.4" class="st4" width="14.46" height="2.89"/>
					<g>
						<g>
							<path class="st4" d="M188.11,82.51h-2.89v-2.89h2.89c2.4,0,4.34-1.94,4.34-4.34s-1.94-4.34-4.34-4.34h-5.78v17.35h-2.89
								V68.05h8.67c3.99,0,7.23,3.24,7.23,7.23S192.11,82.51,188.11,82.51"/>
						</g>
						<g>
							<polygon class="st4" points="196.79,88.29 199.68,88.29 199.68,72.39 205.46,78.17 211.24,72.39 211.24,88.29 214.13,88.29 
								214.13,68.05 211.24,68.05 205.46,73.84 199.68,68.05 196.79,68.05 							"/>
						</g>
					</g>
				</g>
			</g>
		</g>
	</g>
</g>
</svg>
