<?xml version="1.0" encoding="utf-8"?>
<!-- Generator: Adobe Illustrator 27.2.0, SVG Export Plug-In . SVG Version: 6.00 Build 0)  -->
<svg version="1.1" xmlns="http://www.w3.org/2000/svg" xmlns:xlink="http://www.w3.org/1999/xlink" x="0px" y="0px"
	 viewBox="0 0 384.5 384.5" style="enable-background:new 0 0 384.5 384.5;" xml:space="preserve">
<style type="text/css">
	.st0{fill:#8DD0E0;stroke:#FFFFFF;stroke-width:2.672;}
	.st1{fill:none;stroke:#FFFFFF;stroke-width:8;}
	.st2{fill:none;stroke:#FFFFFF;stroke-width:2.672;}
	.st3{fill:none;stroke:#000000;stroke-width:4;}
	.st4{fill:#FFFFFF;}
</style>
<g id="HG">
</g>
<g id="Siegel">
	<g>
		<g>
			<path class="st0" d="M192.25,376.5c101.76,0,184.25-82.49,184.25-184.25S294.01,8,192.25,8S8,90.49,8,192.25
				S90.49,376.5,192.25,376.5"/>
			<circle class="st1" cx="192.25" cy="192.25" r="188.25"/>
			<circle class="st2" cx="192.25" cy="192.25" r="177.59"/>
		</g>
		<g>
			<g>
				<path d="M148.31,337.21c-0.23-1.23-0.8-1.92-1.84-1.92c-0.83,0-1.4,0.43-1.4,1.23c0,2.41,6.02,3.38,6.02,7.97
					c0,2.75-1.89,4.16-4.5,4.16c-2.81,0-4.42-1.61-4.9-4.3l2.81-0.77c0.2,1.29,0.66,2.44,2.12,2.44c0.83,0,1.43-0.49,1.43-1.35
					c0-2.67-6.02-3.67-6.02-7.89c0-2.44,1.89-4.13,4.3-4.13c2.52,0,4.21,1.69,4.7,4.1L148.31,337.21z"/>
				<path d="M152.35,335.58v-2.64h1.78v-4.16h3.21v4.16h2.15v2.64h-2.15v8.89c0,0.8,0.34,1.26,1.09,1.26h1.06v2.75
					c-0.43,0.11-0.8,0.17-1.61,0.17c-2.41,0-3.76-1.12-3.76-3.47v-9.61H152.35z"/>
				<path d="M161.24,337.47c0.17-3.13,2.15-4.82,5.16-4.82c2.98,0,4.68,1.38,4.68,4.19v9.89c0,0.49,0.11,1.12,0.2,1.64h-3.07
					c-0.03-0.43-0.14-0.83-0.17-1.2c-1.21,0.98-2.21,1.49-3.76,1.49c-2.18,0-3.27-1.49-3.27-3.47c0-3.38,2.24-5.25,6.85-7v-0.92
					c0-1.29-0.52-1.98-1.58-1.98c-1.46,0-1.78,0.86-1.83,2.18H161.24z M167.87,340.54c-2.92,1.66-3.64,2.72-3.64,4.07
					c0,1,0.51,1.4,1.49,1.4c0.89,0,1.61-0.66,2.15-1.43V340.54z"/>
			</g>
			<g>
				<path d="M173.05,335.58v-2.64h1.78v-4.16h3.21v4.16h2.15v2.64h-2.15v8.89c0,0.8,0.34,1.26,1.09,1.26h1.06v2.75
					c-0.43,0.11-0.8,0.17-1.61,0.17c-2.41,0-3.76-1.12-3.76-3.47v-9.61H173.05z"/>
				<path d="M182.32,328.74h3.21v2.93h-3.21V328.74z M182.32,332.94h3.21v15.43h-3.21V332.94z"/>
			</g>
			<g>
				<path d="M194.5,337.21c-0.23-1.23-0.8-1.92-1.84-1.92c-0.83,0-1.4,0.43-1.4,1.23c0,2.41,6.02,3.38,6.02,7.97
					c0,2.75-1.89,4.16-4.5,4.16c-2.81,0-4.42-1.61-4.9-4.3l2.81-0.77c0.2,1.29,0.66,2.44,2.12,2.44c0.83,0,1.43-0.49,1.43-1.35
					c0-2.67-6.02-3.67-6.02-7.89c0-2.44,1.89-4.13,4.3-4.13c2.52,0,4.21,1.69,4.7,4.1L194.5,337.21z"/>
				<path d="M198.55,335.58v-2.64h1.78v-4.16h3.21v4.16h2.15v2.64h-2.15v8.89c0,0.8,0.34,1.26,1.09,1.26h1.06v2.75
					c-0.43,0.11-0.8,0.17-1.61,0.17c-2.41,0-3.76-1.12-3.76-3.47v-9.61H198.55z"/>
				<path d="M207.44,337.47c0.17-3.13,2.15-4.82,5.16-4.82c2.98,0,4.67,1.38,4.67,4.19v9.89c0,0.49,0.11,1.12,0.2,1.64h-3.07
					c-0.03-0.43-0.14-0.83-0.17-1.2c-1.2,0.98-2.21,1.49-3.76,1.49c-2.18,0-3.27-1.49-3.27-3.47c0-3.38,2.24-5.25,6.85-7v-0.92
					c0-1.29-0.52-1.98-1.58-1.98c-1.46,0-1.78,0.86-1.83,2.18H207.44z M214.06,340.54c-2.93,1.66-3.64,2.72-3.64,4.07
					c0,1,0.52,1.4,1.49,1.4c0.89,0,1.61-0.66,2.15-1.43V340.54z"/>
				<path d="M242.7,328.76h-18.5c-0.38,0-0.7,0.31-0.7,0.7v12.6c0.03,0,0.07-0.01,0.1-0.01c0,0,2.99-0.06,4.28-0.73
					c1.59-0.83,2.77-2.53,2.77-2.53c0.3-0.43,0.63-0.91,0.74-1.06c0.11-0.15,0.21-0.3,0.24-0.34c0.03-0.03,0.15-0.21,0.22-0.31
					c0.07-0.1,0.38-0.54,0.68-0.98c0,0,1.8-2.61,4.36-3.93c2.77-1.44,6.44-1.28,6.44-1.28c0.02,0,0.04,0,0.06,0.01v-1.44
					C243.4,329.07,243.09,328.76,242.7,328.76 M238.93,336.09c-1.59,0.82-2.77,2.53-2.77,2.53c-0.3,0.43-0.63,0.91-0.74,1.06
					c-0.1,0.15-0.21,0.3-0.24,0.34c-0.03,0.03-0.15,0.21-0.22,0.31c-0.07,0.1-0.38,0.54-0.68,0.98c0,0-1.8,2.61-4.36,3.93
					c-2.66,1.38-6.13,1.29-6.42,1.28v1.43c0,0.38,0.31,0.7,0.7,0.7h18.5c0.39,0,0.7-0.31,0.7-0.7v-12.62
					c-0.06,0.01-0.12,0.02-0.18,0.02C243.22,335.36,240.22,335.42,238.93,336.09"/>
			</g>
		</g>
		<line class="st3" x1="112.94" y1="297.29" x2="271.68" y2="297.29"/>
		<g>
			<path d="M207.12,177.86c0.11,0.38-0.12,0.69-0.52,0.69h-26.83c-0.4,0-0.62-0.31-0.49-0.68l2.07-5.99
				c0.13-0.38,0.56-0.68,0.96-0.68h22.1c0.4,0,0.82,0.31,0.93,0.69L207.12,177.86z"/>
			<path d="M199.06,168.55c0.03,0.4-0.28,0.72-0.68,0.72h-10.04c-0.4,0-0.7-0.32-0.66-0.72l3.01-44.96c0.04-0.4,0.39-0.72,0.79-0.72
				h2.75c0.4,0,0.74,0.32,0.77,0.72L199.06,168.55z"/>
			<rect x="167.02" y="118.16" width="50.57" height="2.55"/>
			<path d="M199.51,109.22c0,3.65-2.96,6.61-6.61,6.61c-3.65,0-6.61-2.96-6.61-6.61c0-3.65,2.96-6.61,6.61-6.61
				C196.55,102.62,199.51,105.58,199.51,109.22"/>
			<path d="M171.27,119.43c0,1.7-1.38,3.07-3.07,3.07c-1.7,0-3.07-1.38-3.07-3.07c0-1.7,1.38-3.07,3.07-3.07
				C169.89,116.36,171.27,117.73,171.27,119.43"/>
			<path d="M180.8,156.66c0,0.94-6.27,5.72-12.61,5.72s-12.6-4.79-12.6-5.72c0-0.94,0.76-1.69,1.7-1.69h21.82
				C180.05,154.96,180.8,155.72,180.8,156.66"/>
			<path d="M177.63,153.17c-0.29,0-0.55-0.19-0.62-0.48l-7.09-27.83c-0.09-0.34,0.12-0.69,0.46-0.77c0.34-0.1,0.69,0.12,0.77,0.46
				l7.09,27.83c0.09,0.34-0.12,0.69-0.46,0.78C177.74,153.16,177.69,153.17,177.63,153.17"/>
			<path d="M158.76,153.17c-0.05,0-0.1-0.01-0.15-0.02c-0.34-0.08-0.55-0.43-0.47-0.77l6.85-27.83c0.08-0.34,0.43-0.55,0.77-0.47
				c0.34,0.08,0.55,0.43,0.47,0.77l-6.85,27.83C159.31,152.97,159.05,153.17,158.76,153.17"/>
			<path d="M221.63,119.43c0,1.7-1.38,3.07-3.07,3.07c-1.7,0-3.07-1.38-3.07-3.07c0-1.7,1.38-3.07,3.07-3.07
				C220.26,116.36,221.63,117.73,221.63,119.43"/>
			<path d="M231.17,156.66c0,0.94-6.27,5.72-12.61,5.72s-12.6-4.79-12.6-5.72c0-0.94,0.76-1.69,1.7-1.69h21.82
				C230.41,154.96,231.17,155.72,231.17,156.66"/>
			<path d="M228,153.17c-0.29,0-0.55-0.19-0.62-0.48l-7.09-27.83c-0.09-0.34,0.12-0.69,0.46-0.77c0.34-0.1,0.69,0.12,0.77,0.46
				l7.09,27.83c0.09,0.34-0.12,0.69-0.46,0.78C228.1,153.16,228.05,153.17,228,153.17"/>
			<path d="M209.12,153.17c-0.05,0-0.1-0.01-0.15-0.02c-0.34-0.08-0.55-0.43-0.47-0.77l6.85-27.83c0.09-0.34,0.43-0.55,0.77-0.47
				c0.34,0.08,0.55,0.43,0.47,0.77l-6.85,27.83C209.67,152.97,209.41,153.17,209.12,153.17"/>
		</g>
		<g>
			<path d="M166.45,254.44c0-2.57,1.15-4.97,5.83-7.97c2.66-1.7,3.74-2.78,3.74-4.68c0-1.94-1.22-3.19-3.34-3.19
				c-1.82,0-3.29,1.01-4.34,2.93l-1.63-1.01c1.3-2.35,3.31-3.79,6.07-3.79c3.29,0,5.3,2.02,5.3,4.92c0,2.33-1.06,3.91-4.46,6.07
				c-3.1,1.97-4.61,3.72-4.8,5.23h9.36v1.87h-11.74V254.44z"/>
			<path d="M180.85,245.94c0-5.54,2.45-9.22,6.7-9.22c4.27,0,6.65,3.67,6.65,9.22c0,5.54-2.38,9.22-6.65,9.22
				C183.29,255.16,180.85,251.49,180.85,245.94z M192.1,245.94c0-4.82-1.78-7.34-4.56-7.34c-2.9,0-4.58,2.52-4.58,7.34
				s1.78,7.37,4.58,7.37C190.4,253.31,192.1,250.77,192.1,245.94z"/>
			<path d="M196.52,254.44c0-2.57,1.15-4.97,5.83-7.97c2.66-1.7,3.74-2.78,3.74-4.68c0-1.94-1.22-3.19-3.34-3.19
				c-1.82,0-3.29,1.01-4.34,2.93l-1.63-1.01c1.3-2.35,3.31-3.79,6.07-3.79c3.29,0,5.3,2.02,5.3,4.92c0,2.33-1.06,3.91-4.46,6.07
				c-3.1,1.97-4.61,3.72-4.8,5.23h9.36v1.87h-11.74V254.44z"/>
			<path d="M210.29,251.92l1.54-1.15c1.27,1.82,2.86,2.54,4.73,2.54c2.47,0,4.03-1.25,4.03-3.36c0-2.47-1.56-3.65-5.47-3.65h-0.72
				v-1.75h0.84c3.67,0,4.92-1.13,4.92-3.1c0-1.68-1.01-2.83-3.53-2.83c-1.7,0-3.14,0.79-4.18,2.02l-1.37-1.27
				c1.32-1.54,3.29-2.62,5.71-2.62c3.77,0,5.45,2.02,5.45,4.44c0,2.23-1.32,3.72-3.46,4.2c2.64,0.53,3.89,2.09,3.89,4.61
				c0,3-2.38,5.16-6.12,5.16C213.89,255.16,211.66,254.01,210.29,251.92z"/>
		</g>
		<line class="st3" x1="113.54" y1="190.28" x2="272.28" y2="190.28"/>
		<g>
			<path d="M131.37,270.05h3.3l2.21,8.99h0.02l2.07-8.99h3.35v12.58h-2.45v-8.84h-0.03c-0.02,0.21-0.06,0.46-0.11,0.74
				c-0.05,0.28-0.11,0.56-0.17,0.84c-0.06,0.28-0.13,0.56-0.2,0.82c-0.07,0.27-0.12,0.5-0.17,0.69l-1.5,5.75h-1.92l-1.46-5.75
				c-0.03-0.15-0.08-0.35-0.14-0.61c-0.06-0.26-0.13-0.54-0.2-0.84c-0.07-0.3-0.13-0.6-0.19-0.91c-0.06-0.31-0.1-0.57-0.12-0.8
				h-0.03v8.91h-2.26V270.05z"/>
			<path d="M144.51,270.05h2.58v12.58h-2.58V270.05z"/>
			<path d="M153.34,282.83c-0.75,0-1.41-0.15-1.97-0.44c-0.57-0.29-1.04-0.72-1.43-1.28s-0.68-1.25-0.88-2.06
				c-0.2-0.81-0.3-1.73-0.3-2.75c0-2.07,0.42-3.67,1.26-4.8c0.84-1.13,2.05-1.69,3.64-1.69c1.2,0,2.14,0.34,2.83,1.03
				c0.69,0.69,1.16,1.79,1.42,3.31l-2.35,0.46c-0.18-0.95-0.43-1.62-0.74-2.01c-0.31-0.38-0.73-0.58-1.25-0.58
				c-0.29,0-0.58,0.07-0.84,0.2c-0.27,0.13-0.5,0.36-0.71,0.68s-0.37,0.76-0.48,1.3c-0.12,0.54-0.18,1.24-0.18,2.07
				c0,0.85,0.06,1.56,0.17,2.12c0.11,0.57,0.27,1.02,0.48,1.37s0.45,0.59,0.74,0.74c0.29,0.15,0.61,0.22,0.96,0.22
				c0.58,0,1.04-0.2,1.39-0.6c0.35-0.4,0.57-1,0.66-1.81h-1.82v-1.94h4.15v6.26h-1.9v-1.62h-0.02c-0.08,0.2-0.2,0.41-0.36,0.63
				c-0.16,0.22-0.36,0.41-0.6,0.59c-0.24,0.18-0.52,0.32-0.83,0.43S153.72,282.83,153.34,282.83z"/>
			<path d="M160.07,270.05H164c0.66,0,1.25,0.07,1.79,0.22c0.53,0.15,0.98,0.38,1.34,0.7s0.64,0.73,0.84,1.22
				c0.2,0.5,0.3,1.1,0.3,1.8c0,0.86-0.19,1.57-0.58,2.13c-0.39,0.56-0.88,0.97-1.5,1.22l2.4,5.29h-2.67l-2.12-4.66h-1.19v4.66h-2.53
				V270.05z M163.91,276c0.63,0,1.11-0.15,1.42-0.44c0.31-0.29,0.47-0.8,0.47-1.51c0-0.68-0.16-1.16-0.47-1.43
				c-0.31-0.27-0.78-0.41-1.42-0.41h-1.31V276H163.91z"/>
			<path d="M171.71,282.63h-2.41l3.69-12.63h2.48l3.69,12.63h-2.6l-0.68-2.65h-3.47L171.71,282.63z M175.03,276.69
				c-0.09-0.33-0.17-0.64-0.25-0.93s-0.14-0.57-0.21-0.84c-0.07-0.27-0.14-0.54-0.2-0.82c-0.07-0.27-0.13-0.56-0.19-0.85h-0.03
				c-0.06,0.29-0.12,0.58-0.18,0.85c-0.06,0.27-0.13,0.54-0.2,0.81c-0.07,0.27-0.15,0.54-0.23,0.83c-0.08,0.29-0.16,0.6-0.25,0.93
				l-0.34,1.29h2.41L175.03,276.69z"/>
			<path d="M182.61,272.22h-2.99v-2.18h8.58v2.18h-3.01v10.4h-2.58V272.22z"/>
			<path d="M189.61,270.05h2.58v12.58h-2.58V270.05z"/>
			<path d="M198.86,282.87c-0.68,0-1.32-0.13-1.93-0.38s-1.14-0.65-1.59-1.19c-0.45-0.54-0.81-1.22-1.08-2.04
				c-0.27-0.82-0.4-1.79-0.4-2.92s0.13-2.09,0.4-2.92c0.27-0.82,0.63-1.5,1.08-2.04s0.98-0.94,1.59-1.19s1.25-0.38,1.93-0.38
				c0.68,0,1.32,0.13,1.92,0.38s1.13,0.65,1.58,1.19s0.81,1.22,1.08,2.04c0.27,0.82,0.4,1.79,0.4,2.92s-0.13,2.09-0.4,2.92
				c-0.27,0.82-0.63,1.5-1.08,2.04c-0.45,0.54-0.98,0.94-1.58,1.19S199.54,282.87,198.86,282.87z M198.86,280.72
				c0.78,0,1.37-0.38,1.78-1.14c0.4-0.76,0.6-1.84,0.6-3.25s-0.2-2.48-0.6-3.21s-0.99-1.11-1.78-1.11s-1.38,0.37-1.79,1.11
				s-0.61,1.81-0.61,3.21s0.2,2.49,0.61,3.25C197.49,280.34,198.08,280.72,198.86,280.72z"/>
			<path d="M205.44,270.05h2.67l2.89,5.64c0.1,0.2,0.19,0.38,0.27,0.54c0.08,0.16,0.16,0.32,0.24,0.48
				c0.08,0.16,0.16,0.33,0.24,0.51c0.08,0.18,0.17,0.39,0.27,0.63h0.03v-7.8h2.35v12.58H212l-3.26-6.1
				c-0.09-0.17-0.17-0.32-0.25-0.46c-0.07-0.14-0.14-0.28-0.21-0.42c-0.07-0.14-0.14-0.29-0.21-0.45c-0.07-0.16-0.16-0.34-0.25-0.54
				h-0.03v7.97h-2.35V270.05z"/>
			<path d="M220.33,270.05h2.58v10.44h4.73v2.14h-7.31V270.05z"/>
			<path d="M230.6,282.63h-2.41l3.69-12.63h2.48l3.69,12.63h-2.6l-0.68-2.65h-3.47L230.6,282.63z M233.92,276.69
				c-0.09-0.33-0.17-0.64-0.25-0.93c-0.07-0.29-0.14-0.57-0.21-0.84c-0.07-0.27-0.14-0.54-0.2-0.82c-0.07-0.27-0.13-0.56-0.19-0.85
				h-0.03c-0.06,0.29-0.12,0.58-0.18,0.85c-0.06,0.27-0.13,0.54-0.2,0.81c-0.07,0.27-0.15,0.54-0.23,0.83
				c-0.08,0.29-0.16,0.6-0.25,0.93l-0.34,1.29h2.41L233.92,276.69z"/>
			<path d="M238.49,270.05h2.48l0.97,5.05c0.06,0.29,0.11,0.56,0.15,0.8c0.05,0.24,0.09,0.48,0.13,0.72
				c0.04,0.24,0.08,0.51,0.14,0.81c0.05,0.29,0.1,0.63,0.16,1.02h0.03c0.05-0.39,0.09-0.72,0.14-1.01c0.05-0.29,0.1-0.56,0.14-0.81
				c0.04-0.25,0.08-0.49,0.13-0.73c0.04-0.24,0.1-0.5,0.15-0.78l0.93-5.07h2.31l0.95,5.15c0.06,0.28,0.11,0.55,0.15,0.79
				c0.05,0.24,0.09,0.49,0.14,0.75c0.04,0.25,0.09,0.52,0.14,0.8c0.04,0.28,0.09,0.59,0.14,0.93h0.03c0.04-0.34,0.09-0.65,0.13-0.92
				c0.04-0.27,0.08-0.53,0.13-0.78c0.04-0.25,0.09-0.5,0.14-0.75c0.05-0.25,0.1-0.51,0.15-0.78l0.99-5.19h2.29l-2.81,12.63h-2.24
				l-1.56-8.28h-0.03l-1.56,8.28h-2.23L238.49,270.05z"/>
		</g>
		<g>
			<path class="st4" d="M143.16,316.16h0.79v6.66h-0.79V316.16z"/>
			<path class="st4" d="M145.59,316.16h0.84l3.5,5.27h0.02v-5.27h0.75v6.66h-0.71l-3.63-5.41h-0.02v5.41h-0.75V316.16z"/>
			<path class="st4" d="M153.93,319.47c0-2.08,1.16-3.43,2.83-3.43c1.41,0,2.16,0.82,2.47,2.04l-0.76,0.21
				c-0.29-1.01-0.75-1.52-1.72-1.52c-1.24,0-2.02,1.04-2.02,2.69c0,1.76,0.79,2.77,2.03,2.77c0.95,0,1.53-0.53,1.81-1.61l0.75,0.17
				c-0.32,1.31-1.17,2.16-2.57,2.16C155.06,322.95,153.93,321.64,153.93,319.47z"/>
			<path class="st4" d="M160.18,319.49c0-2.14,1.23-3.46,2.88-3.46s2.86,1.31,2.86,3.46s-1.22,3.46-2.86,3.46
				S160.18,321.64,160.18,319.49z M165.14,319.49c0-1.74-0.86-2.74-2.07-2.74c-1.22,0-2.08,1-2.08,2.74s0.86,2.75,2.08,2.75
				C164.27,322.24,165.14,321.23,165.14,319.49z"/>
			<path class="st4" d="M166.83,319.49c0-2.14,1.23-3.46,2.88-3.46s2.86,1.31,2.86,3.46s-1.22,3.46-2.86,3.46
				S166.83,321.64,166.83,319.49z M171.79,319.49c0-1.74-0.86-2.74-2.07-2.74c-1.22,0-2.08,1-2.08,2.74s0.86,2.75,2.08,2.75
				C170.92,322.24,171.79,321.23,171.79,319.49z"/>
			<path class="st4" d="M173.81,316.16h2.26c1.44,0,2.4,0.57,2.4,1.89c0,1.42-1.06,1.95-2.46,1.95h-1.41v2.82h-0.79V316.16z
				 M176.06,319.3c1.06,0,1.63-0.32,1.63-1.22c0-0.86-0.56-1.2-1.64-1.2h-1.45v2.42H176.06z"/>
			<path class="st4" d="M179.56,316.16h4.09v0.73h-3.29v2.08h2.45v0.71h-2.45v2.42h3.48v0.72h-4.28V316.16z"/>
			<path class="st4" d="M184.95,316.16h2.29c1.51,0,2.37,0.64,2.37,1.86c0,1.07-0.6,1.63-1.55,1.83l1.64,2.97h-0.86l-1.59-2.87h-1.5
				v2.87h-0.78V316.16z M187.19,319.25c1.04,0,1.63-0.29,1.63-1.2c0-0.87-0.58-1.17-1.64-1.17h-1.45v2.37H187.19z"/>
			<path class="st4" d="M192.78,316.13h0.83l2.36,6.69h-0.82l-0.66-1.91h-2.65l-0.66,1.91h-0.76L192.78,316.13z M194.25,320.22
				l-1.06-3.12h-0.02l-1.08,3.12H194.25z"/>
			<path class="st4" d="M198.57,316.89h-2.12v-0.73h5.03v0.73h-2.12v5.93h-0.79V316.89z"/>
			<path class="st4" d="M202.59,316.16h0.79v6.66h-0.79V316.16z"/>
			<path class="st4" d="M204.7,319.49c0-2.14,1.23-3.46,2.88-3.46s2.86,1.31,2.86,3.46s-1.22,3.46-2.86,3.46
				S204.7,321.64,204.7,319.49z M209.65,319.49c0-1.74-0.86-2.74-2.07-2.74c-1.22,0-2.08,1-2.08,2.74s0.86,2.75,2.08,2.75
				C208.78,322.24,209.65,321.23,209.65,319.49z"/>
			<path class="st4" d="M211.67,316.16h0.84l3.5,5.27h0.02v-5.27h0.75v6.66h-0.71l-3.63-5.41h-0.02v5.41h-0.75V316.16z"/>
			<path class="st4" d="M219.84,316.16h0.8l0.98,3.86c0.15,0.58,0.3,1.15,0.39,1.63h0.02c0.09-0.47,0.23-1.04,0.38-1.62l0.93-3.87
				h0.8l0.95,3.9c0.14,0.59,0.28,1.08,0.37,1.59h0.02c0.11-0.54,0.22-0.98,0.37-1.57l0.97-3.93h0.76l-1.76,6.66h-0.73l-1.34-5.57
				h-0.02l-1.38,5.57h-0.73L219.84,316.16z"/>
			<path class="st4" d="M228.72,316.16h0.79v6.66h-0.79V316.16z"/>
			<path class="st4" d="M232.73,316.89h-2.12v-0.73h5.03v0.73h-2.12v5.93h-0.79V316.89z"/>
			<path class="st4" d="M236.66,316.16h0.79v2.79h3.43v-2.79h0.79v6.66h-0.79v-3.14h-3.43v3.14h-0.79V316.16z"/>
		</g>
		<g>
			<path d="M101.46,209.61h-5.07v-4.68h15.72v4.68h-5.07v17.52h-5.58V209.61z"/>
			<path d="M112.68,216.03c0-8.19,4.32-11.52,9.21-11.52c4.86,0,9.18,3.33,9.18,11.52s-4.32,11.52-9.18,11.52
				C117,227.55,112.68,224.22,112.68,216.03z M125.46,216.03c0-4.44-1.14-6.78-3.57-6.78c-2.43,0-3.6,2.34-3.6,6.78
				s1.17,6.93,3.6,6.93C124.32,222.96,125.46,220.47,125.46,216.03z"/>
			<path d="M133.47,204.93h6.96c4.14,0,8.19,1.53,8.19,7.59c0,6.3-4.38,7.68-8.22,7.68h-1.44v6.93h-5.49V204.93z M140.55,215.85
				c2.1,0,2.76-1.08,2.76-3.21c0-2.07-0.66-3.09-2.79-3.09h-1.56v6.3H140.55z"/>
			<path d="M158.04,204.93h5.58v17.67h8.1v4.53h-13.68V204.93z"/>
			<path d="M177.51,227.13h-5.19l6.48-22.29h5.43l6.48,22.29h-5.61l-0.93-3.75h-5.7L177.51,227.13z M182.73,217.41
				c-0.54-2.19-0.99-3.63-1.32-5.67h-0.06c-0.33,2.07-0.81,3.45-1.38,5.67l-0.42,1.68h3.57L182.73,217.41z"/>
			<path d="M191.04,204.93h5.37l1.38,7.68c0.33,1.83,0.51,2.79,0.87,5.58h0.06c0.33-2.73,0.54-3.72,0.87-5.55l1.35-7.71h4.95
				l1.38,7.8c0.33,1.8,0.57,3.03,0.84,5.49h0.06c0.3-2.43,0.51-3.63,0.84-5.4l1.41-7.89h4.92l-4.95,22.29h-4.86l-2.31-12.99h-0.06
				l-2.31,12.99h-4.86L191.04,204.93z"/>
			<path d="M224.25,204.93h13.11v4.68h-7.53v4.53h5.34v4.38h-5.34v8.61h-5.58V204.93z"/>
			<path d="M239.46,204.93h5.58v22.2h-5.58V204.93z"/>
			<path d="M248.43,204.93h7.23c4.86,0,7.92,1.98,7.92,7.32c0,2.76-1.26,4.89-3.36,5.88l4.05,9h-5.76l-3.42-7.56h-1.23v7.56h-5.43
				V204.93z M255.5,215.37c1.86,0,2.76-0.81,2.76-3c0-2.13-0.9-2.82-2.76-2.82h-1.65v5.82H255.5z"/>
			<path d="M266.57,204.93h7.14l3.03,14.46h0.03l2.76-14.46h7.26v22.2h-5.28v-14.31h-0.06c-0.06,1.56-0.69,4.29-0.93,5.37
				l-2.04,8.94h-4.08l-1.98-8.91c-0.15-0.69-0.84-3.9-0.96-5.55h-0.06v14.46h-4.83V204.93z"/>
		</g>
		<g>
			<g>
				<path class="st4" d="M154.59,57.55c2.1-0.69,3.86-2.1,3.86-4.74c0-1.51-0.67-2.65-1.66-3.47c-0.93-0.77-2.16-1.26-3.4-1.51
					c-0.43-0.09-0.86-0.14-1.28-0.17v-0.06c2.58-0.39,5.66-1.71,5.66-4.77c0-1.47-0.54-2.51-1.39-3.22
					c-1.64-1.38-4.4-1.61-6.58-1.61h-8.8v0.75h2.83v18.54h-2.83v0.75h6.52C149.61,58.03,152.4,58.27,154.59,57.55 M147.39,38.74
					c2.42,0.06,4.44-0.28,5.56,0.82c0.6,0.58,0.94,1.58,0.94,3.27c0,3.42-1.55,4.47-3.83,4.47h-2.16h-0.51V38.74z M147.39,48.04
					h2.85c1.31,0.01,2.25,0.35,2.9,0.94c0.87,0.8,1.22,2.06,1.22,3.68c0,2.1-0.59,4.62-3.2,4.62h-3.27h-0.51V48.04z"/>
				<polygon class="st4" points="165.47,38.74 168.24,38.74 168.24,37.99 159.13,37.99 159.13,38.74 161.9,38.74 161.9,57.28 
					159.13,57.28 159.13,58.03 168.24,58.03 168.24,57.28 165.47,57.28 				"/>
				<polygon class="st4" points="224.57,38.74 227.43,38.74 227.43,37.99 220.87,37.99 220.87,38.74 223.61,38.74 223.64,51.08 
					223.65,51.45 214.39,37.99 207.26,37.99 207.26,38.74 209.99,38.74 209.99,57.28 207.39,57.28 207.39,58.03 213.75,58.03 
					213.75,57.28 210.95,57.28 210.95,39.34 211.46,40.11 223.67,58.42 224.57,58.42 				"/>
				<path class="st4" d="M243.51,51.58h-0.79c-0.74,3.78-1.63,5.7-5.93,5.7h-5.2l11.9-18.45v-0.84h-15.09l-0.01,5.4h0.85
					c0.52-2.88,1.91-4.02,3.72-4.44c0.89-0.21,1.97-0.21,3.02-0.21h3.32l-0.24,0.38l-11.72,18.1v0.81h16.17L243.51,51.58z"/>
				<path class="st4" d="M206.87,57.28h-2.69l-7.44-19.74h-0.86l-7.6,19.74h-2.4l-0.04-5.62l0-0.38h-0.93c-0.12,3.45-1.47,6-5.28,6
					h-3.72V38.74h3.12v-0.75h-9.52v0.75h2.83v18.54h-2.83v0.75l22.82,0v-0.75h-3.1l1.97-5.31h6.87l0.14,0.38l1.96,4.93h-3.16v0.75
					h9.86V57.28z M194.77,42.85l2.99,8.37h-6.2L194.77,42.85z"/>
			</g>
			<g>
				<path class="st4" d="M148.89,83.42c0-2.98,2.09-4.68,5.34-6.23c-0.8-1.19-2.41-3.73-2.41-5.52c0-2.71,2.33-4.59,6.11-4.59
					c2.53,0,3.76,1.55,3.76,3.79c0,1.76-1.34,3.34-3.46,4.65c1.52,2.27,3.19,4.41,4.86,6.56c1.25-1.7,2.5-4.29,2.5-5.49
					c0-0.63-1.01-0.95-3.07-1.37v-0.21h8.11v0.21c-1.7,0.18-2.83,0.75-3.46,1.46c-0.69,0.78-2.38,3.82-3.82,5.75
					c1.43,1.7,2.98,3.64,3.94,4.2c1.04,0.63,1.49,0.86,2.83,0.98v0.24h-7.57l-1.85-2.21c-1.43,1.43-3.4,2.68-5.52,2.68
					C151.81,88.34,148.89,86.84,148.89,83.42z M160.45,85.35c-2.27-2.86-4.98-6.44-5.93-7.75c-0.66,0.98-1.01,2.71-1.01,4.56
					c0,2.92,1.31,4.59,3.25,4.59C158.22,86.76,159.65,86.16,160.45,85.35z M160.31,70.84c0-1.94-0.75-3.43-2.27-3.43
					c-1.16,0-2.12,1.16-2.12,3.01c0,1.34,1.04,3.16,2.12,4.77C159.83,74.03,160.31,72.51,160.31,70.84z"/>
				<g>
					<rect x="217.03" y="68.05" class="st4" width="14.46" height="2.89"/>
					<rect x="219.92" y="76.73" class="st4" width="8.67" height="2.89"/>
					<rect x="217.03" y="85.4" class="st4" width="14.46" height="2.89"/>
					<g>
						<g>
							<path class="st4" d="M188.11,82.51h-2.89v-2.89h2.89c2.4,0,4.34-1.94,4.34-4.34s-1.94-4.34-4.34-4.34h-5.78v17.35h-2.89
								V68.05h8.67c3.99,0,7.23,3.24,7.23,7.23S192.11,82.51,188.11,82.51"/>
						</g>
						<g>
							<polygon class="st4" points="196.79,88.29 199.68,88.29 199.68,72.39 205.46,78.17 211.24,72.39 211.24,88.29 214.14,88.29 
								214.14,68.05 211.24,68.05 205.46,73.84 199.68,68.05 196.79,68.05 							"/>
						</g>
					</g>
				</g>
			</g>
		</g>
	</g>
</g>
</svg>
